<svg xmlns="http://www.w3.org/2000/svg" xmlns:xlink="http://www.w3.org/1999/xlink" id="_Слой_1" data-name="Слой 1" viewBox="366.45 410.19 567.11 79.62">
  <defs>
    <style>
      .cls-1 {
        fill: url(#linear-gradient);
      }

      .cls-1, .cls-2, .cls-3, .cls-4, .cls-5, .cls-6, .cls-7, .cls-8, .cls-9, .cls-10, .cls-11 {
        stroke-width: 0px;
      }

      .cls-2 {
        fill: url(#_Безымянный_градиент_6);
      }

      .cls-3 {
        fill: url(#_Безымянный_градиент_6-6);
      }

      .cls-4 {
        fill: url(#_Безымянный_градиент_6-5);
      }

      .cls-5 {
        fill: url(#_Безымянный_градиент_6-7);
      }

      .cls-6 {
        fill: url(#_Безымянный_градиент_6-8);
      }

      .cls-7 {
        fill: url(#_Безымянный_градиент_6-2);
      }

      .cls-8 {
        fill: url(#_Безымянный_градиент_6-4);
      }

      .cls-9 {
        fill: url(#_Безымянный_градиент_6-3);
      }

      .cls-10 {
        fill: #0d2e99;
      }

      .cls-11 {
        fill: #0e33ca;
      }
    </style>
    <linearGradient id="_Безымянный_градиент_6" data-name="Безымянный градиент 6" x1="425.66" y1="467.21" x2="443.16" y2="385.05" gradientUnits="userSpaceOnUse">
      <stop offset="0" stop-color="#237bff"/>
      <stop offset="1" stop-color="#2439ff"/>
    </linearGradient>
    <linearGradient id="linear-gradient" x1="355.92" y1="4283.85" x2="405.31" y2="4283.85" gradientTransform="translate(3166.85 -2870.81) rotate(45)" gradientUnits="userSpaceOnUse">
      <stop offset="0" stop-color="#0081ea"/>
      <stop offset="1" stop-color="#3ab3ff"/>
    </linearGradient>
    <linearGradient id="_Безымянный_градиент_6-2" data-name="Безымянный градиент 6" x1="686.32" y1="494.96" x2="686.32" y2="391.57" xlink:href="#_Безымянный_градиент_6"/>
    <linearGradient id="_Безымянный_градиент_6-3" data-name="Безымянный градиент 6" x1="732.96" y1="494.96" x2="732.96" y2="391.57" xlink:href="#_Безымянный_градиент_6"/>
    <linearGradient id="_Безымянный_градиент_6-4" data-name="Безымянный градиент 6" x1="779.36" y1="494.96" x2="779.36" y2="391.57" xlink:href="#_Безымянный_градиент_6"/>
    <linearGradient id="_Безымянный_градиент_6-5" data-name="Безымянный градиент 6" x1="819.46" y1="494.96" x2="819.46" y2="391.57" xlink:href="#_Безымянный_градиент_6"/>
    <linearGradient id="_Безымянный_градиент_6-6" data-name="Безымянный градиент 6" x1="851.18" y1="494.96" x2="851.18" y2="391.59" xlink:href="#_Безымянный_градиент_6"/>
    <linearGradient id="_Безымянный_градиент_6-7" data-name="Безымянный градиент 6" x1="884.99" y1="494.96" x2="884.99" y2="391.57" xlink:href="#_Безымянный_градиент_6"/>
    <linearGradient id="_Безымянный_градиент_6-8" data-name="Безымянный градиент 6" x1="922.2" y1="494.96" x2="922.2" y2="391.57" xlink:href="#_Безымянный_градиент_6"/>
  </defs>
  <g>
    <path class="cls-11" d="M372.38,445.66l26.99,9.34c.93.32,1.66,1.05,1.98,1.98l9.34,26.99,7.75-20.23-5.62-18.02c-.33-1.04-1.14-1.86-2.18-2.18l-18.02-5.62-20.23,7.75Z"/>
    <path id="Shape" class="cls-2" d="M427.91,428.43l-17.22,55.54,3.5,3.5c3.16,3.16,8.54,3.12,11.75-.09,1.09-1.09,1.87-2.46,2.24-3.96l18.36-60.73-18.63,5.74Z"/>
    <path class="cls-1" d="M368.97,430.41c-3.21,3.21-3.42,8.42-.26,11.58l3.67,3.67,18.08-5.6,37.42-11.59h.02s0-.01,0-.01l18.63-5.77s5.57-18.45-20.68-10.52c-.14.05-.57.17-.57.17l-52.36,15.83c-1.5.37-2.86,1.14-3.96,2.24Z"/>
  </g>
  <g>
    <path class="cls-10" d="M469.62,442.76c0,1.73,2.45,3.21,7.36,4.45,1.72.38,3.29.82,4.69,1.33,1.4.51,2.82,1.24,4.24,2.18,1.43.94,2.55,2.2,3.35,3.76.81,1.56,1.21,3.37,1.21,5.42,0,4.15-1.56,7.36-4.69,9.62-3.13,2.21-6.98,3.31-11.56,3.31-8.3,0-13.96-3.21-16.98-9.62l9.05-5.09c1.24,3.5,3.88,5.25,7.92,5.25,3.72,0,5.58-1.16,5.58-3.48,0-1.72-2.45-3.21-7.36-4.45-1.83-.48-3.39-.97-4.69-1.45-1.29-.49-2.7-1.2-4.2-2.14-1.51-.94-2.65-2.15-3.44-3.64-.78-1.48-1.17-3.22-1.17-5.21,0-3.99,1.45-7.11,4.36-9.38,2.96-2.32,6.63-3.48,10.99-3.48,3.29,0,6.28.74,8.97,2.22,2.69,1.48,4.82,3.6,6.39,6.35l-8.89,4.85c-1.29-2.75-3.45-4.12-6.47-4.12-1.35,0-2.47.31-3.36.93-.89.62-1.33,1.41-1.33,2.38Z"/>
    <path class="cls-10" d="M540.68,430.15c4.63,0,8.34,1.51,11.12,4.53,2.77,3.02,4.16,7.06,4.16,12.13v24.9h-10.43v-24.17c0-2.43-.59-4.31-1.78-5.66-1.19-1.35-2.86-2.02-5.01-2.02-2.37,0-4.22.78-5.54,2.34-1.32,1.56-1.98,3.83-1.98,6.79v22.72h-10.43v-24.17c0-2.43-.59-4.31-1.78-5.66-1.19-1.35-2.86-2.02-5.01-2.02-2.32,0-4.16.8-5.54,2.38-1.37,1.59-2.06,3.84-2.06,6.75v22.72h-10.43v-40.42h10.43v4.28c2.43-3.61,6.17-5.42,11.24-5.42s8.68,1.94,10.99,5.82c2.64-3.88,6.66-5.82,12.04-5.82Z"/>
    <path class="cls-10" d="M593.95,436.05v-4.77h10.43v40.42h-10.43v-4.77c-3.13,3.93-7.52,5.9-13.18,5.9s-10.02-2.05-13.9-6.14c-3.83-4.15-5.74-9.21-5.74-15.2s1.91-10.97,5.74-15.12c3.88-4.15,8.52-6.22,13.9-6.22,5.66,0,10.05,1.97,13.18,5.9ZM574.71,459.73c2.1,2.1,4.77,3.15,8,3.15s5.9-1.05,8-3.15,3.23-4.9,3.23-8.24-1.08-6.06-3.23-8.16c-2.1-2.15-4.77-3.23-8-3.23s-5.9,1.08-8,3.23c-2.1,2.1-3.15,4.82-3.15,8.16s1.05,6.09,3.15,8.24Z"/>
    <path class="cls-10" d="M633.44,431.27c-.37,0-.73,0-1.09.02-1.84.04-3.51.25-5.03,1.16-2.21,1.32-3.77,3.24-4.69,5.77v-6.95h-10.42v40.43h10.42v-19.32c0-3.89,1.24-7.32,3.72-8.99,2.53-1.73,5.23-2.09,8.57-2.09v-10.03h-1.49Z"/>
    <path class="cls-10" d="M653.94,462.28c-1.35-.08-2.37-.44-3.06-1.09-.7-.66-1.06-1.67-1.06-3.08v-16.81l-10.42,3.91v12.9c0,5.6,1.49,9.47,4.48,11.6,2.99,2.12,8.01,2.79,15.07,1.98v-9.46c-1.99.11-3.66.12-5.01.04ZM649.82,431.27v-10.49l-10.42,2.34v8.16h-7.04v10.03h26.59v-10.03h-9.13Z"/>
    <g>
      <path class="cls-7" d="M702.12,436.38c-3.83-4.15-8.45-6.22-13.9-6.22s-10.02,1.97-13.09,5.89v-20.93l-10.42,2.34v54.25h10.42v-4.77c3.08,3.94,7.44,5.9,13.09,5.9s10.14-2.05,13.9-6.14c3.89-4.1,5.82-9.17,5.82-15.2s-1.93-10.96-5.82-15.11ZM694.29,459.74c-2.1,2.1-4.77,3.15-8,3.15s-5.9-1.05-8-3.15c-2.11-2.16-3.16-4.91-3.16-8.25s1.05-6.06,3.16-8.17c2.1-2.15,4.77-3.23,8-3.23s5.9,1.09,8,3.23c2.15,2.11,3.23,4.83,3.23,8.17s-1.09,6.09-3.23,8.25Z"/>
      <path class="cls-9" d="M748.12,466.69c-4.1,4.1-9.16,6.14-15.2,6.14s-11.1-2.05-15.2-6.14c-4.1-4.09-6.14-9.16-6.14-15.2s2.05-11.02,6.14-15.12,9.22-6.22,15.2-6.22,11.05,2.08,15.2,6.22c4.15,4.15,6.22,9.19,6.22,15.12s-2.08,11.05-6.22,15.2ZM725.08,459.49c2.1,2.1,4.72,3.15,7.84,3.15s5.74-1.05,7.84-3.15c2.1-2.1,3.15-4.77,3.15-8s-1.05-5.9-3.15-8c-2.1-2.1-4.72-3.15-7.84-3.15s-5.74,1.05-7.84,3.15c-2.05,2.16-3.07,4.82-3.07,8s1.02,5.85,3.07,8Z"/>
      <path class="cls-8" d="M794.52,466.69c-4.1,4.1-9.16,6.14-15.2,6.14s-11.1-2.05-15.2-6.14c-4.1-4.09-6.14-9.16-6.14-15.2s2.05-11.02,6.14-15.12c4.15-4.15,9.21-6.22,15.2-6.22s11.05,2.08,15.2,6.22c4.15,4.15,6.22,9.19,6.22,15.12s-2.08,11.05-6.22,15.2ZM771.48,459.49c2.1,2.1,4.72,3.15,7.84,3.15s5.74-1.05,7.84-3.15c2.1-2.1,3.15-4.77,3.15-8s-1.05-5.9-3.15-8c-2.1-2.1-4.72-3.15-7.84-3.15s-5.74,1.05-7.84,3.15c-2.05,2.16-3.07,4.82-3.07,8s1.02,5.85,3.07,8Z"/>
      <path class="cls-4" d="M815.21,442.76c0,1.73,2.45,3.21,7.36,4.45,1.72.38,3.29.82,4.69,1.33,1.4.51,2.81,1.24,4.24,2.18,1.43.94,2.55,2.2,3.36,3.76.81,1.56,1.21,3.37,1.21,5.42,0,4.15-1.56,7.36-4.69,9.62-3.13,2.21-6.98,3.31-11.56,3.31-8.3,0-13.96-3.21-16.98-9.62l9.05-5.09c1.24,3.5,3.88,5.25,7.92,5.25,3.72,0,5.58-1.16,5.58-3.48,0-1.72-2.45-3.21-7.36-4.45-1.83-.48-3.39-.97-4.69-1.45-1.29-.49-2.69-1.2-4.2-2.14-1.51-.94-2.66-2.15-3.44-3.64-.78-1.48-1.17-3.22-1.17-5.21,0-3.99,1.46-7.11,4.36-9.38,2.96-2.32,6.63-3.48,10.99-3.48,3.29,0,6.28.74,8.97,2.22,2.69,1.48,4.82,3.6,6.39,6.35l-8.89,4.85c-1.29-2.75-3.45-4.12-6.47-4.12-1.35,0-2.47.31-3.36.93-.89.62-1.33,1.41-1.33,2.38Z"/>
      <path class="cls-3" d="M860.96,431.28v10.02h-9.13v16.81c0,1.4.35,2.43,1.05,3.07.7.65,1.72,1.01,3.07,1.09s3.02.07,5.01-.04v9.46c-7.06.81-12.08.15-15.08-1.98-2.99-2.13-4.49-5.99-4.49-11.6v-35l10.43-2.77v10.93h9.13Z"/>
      <path class="cls-5" d="M905.49,455.77h-30.47c1.35,5.07,5.14,7.6,11.4,7.6,3.99,0,7-1.35,9.05-4.04l8.41,4.85c-3.99,5.77-9.86,8.65-17.62,8.65-6.68,0-12.04-2.02-16.09-6.06-4.04-4.04-6.06-9.13-6.06-15.28s1.99-11.1,5.98-15.2c3.93-4.1,9.05-6.14,15.36-6.14s10.86,2.05,14.63,6.14c3.88,4.1,5.82,9.16,5.82,15.2,0,1.13-.14,2.56-.4,4.28ZM874.85,447.69h20.61c-.59-2.64-1.79-4.66-3.6-6.06-1.81-1.4-3.95-2.1-6.43-2.1-2.8,0-5.12.72-6.95,2.14-1.83,1.43-3.04,3.44-3.64,6.02Z"/>
      <path class="cls-6" d="M921.27,431.28v6.95c.92-2.53,2.48-4.46,4.69-5.78,2.21-1.32,4.74-1.98,7.6-1.98v11.64c-3.18-.43-6.04.22-8.57,1.94-2.48,1.67-3.72,4.45-3.72,8.33v19.32h-10.43v-40.42h10.43Z"/>
    </g>
  </g>
</svg>